<?xml version="1.0" encoding="UTF-8" standalone="no"?>
<!-- Created with Inkscape (http://www.inkscape.org/) -->

<svg
   xmlns:dc="http://purl.org/dc/elements/1.1/"
   xmlns:cc="http://creativecommons.org/ns#"
   xmlns:rdf="http://www.w3.org/1999/02/22-rdf-syntax-ns#"
   xmlns:svg="http://www.w3.org/2000/svg"
   xmlns="http://www.w3.org/2000/svg"
   xmlns:xlink="http://www.w3.org/1999/xlink"
   xmlns:sodipodi="http://sodipodi.sourceforge.net/DTD/sodipodi-0.dtd"
   xmlns:inkscape="http://www.inkscape.org/namespaces/inkscape"
   width="85.249969mm"
   height="54.932709mm"
   viewBox="0 0 85.24997 54.932709"
   version="1.1"
   id="svg8"
   sodipodi:docname="prelim_venn_activity_xy.svg"
   inkscape:version="0.92+devel (unknown)">
  <defs
     id="defs2">
    <pattern
       inkscape:collect="always"
       xlink:href="#Checkerboard"
       id="pattern2612"
       patternTransform="matrix(2.8902312,2.8902312,-2.8902312,2.8902312,0,0)" />
    <pattern
       inkscape:stockid="Checkerboard"
       id="Checkerboard"
       patternTransform="translate(0,0) scale(10,10)"
       height="2"
       width="2"
       patternUnits="userSpaceOnUse"
       inkscape:collect="always">
      <rect
         id="rect1964"
         height="1"
         width="1"
         y="0"
         x="0"
         style="fill:black;stroke:none" />
      <rect
         id="rect1966"
         height="1"
         width="1"
         y="1"
         x="1"
         style="fill:black;stroke:none" />
    </pattern>
    <pattern
       inkscape:collect="always"
       xlink:href="#Strips1_2-5-7"
       id="pattern2298-7-2"
       patternTransform="scale(3.391219,93.161242)" />
    <pattern
       inkscape:stockid="Stripes 1:2"
       id="Strips1_2-5-7"
       patternTransform="translate(0,0) scale(10,10)"
       height="1"
       width="3"
       patternUnits="userSpaceOnUse"
       inkscape:collect="always">
      <rect
         id="rect1590-3-0"
         height="2"
         width="1"
         y="-0.5"
         x="0"
         style="fill:black;stroke:none" />
    </pattern>
    <pattern
       inkscape:collect="always"
       xlink:href="#Wavy-2-6"
       id="pattern2403-6-3"
       patternTransform="matrix(0.70086523,0,0,1.9731625,-3.7795276e-6,-5.2913386e-7)" />
    <pattern
       inkscape:isstock="true"
       inkscape:stockid="Wavy"
       id="Wavy-2-6"
       height="5.1805778"
       width="30.066020"
       patternUnits="userSpaceOnUse"
       inkscape:collect="always">
      <path
         id="path2206-9-0"
         d="M 7.597,0.061 C 5.079,-0.187 2.656,0.302 -0.01,1.788 L -0.01,3.061 C 2.773,1.431 5.173,1.052 7.472,1.280 C 9.770,1.508 11.969,2.361 14.253,3.218 C 18.820,4.931 23.804,6.676 30.066,3.061 L 30.062,1.788 C 23.622,5.497 19.246,3.770 14.691,2.061 C 12.413,1.207 10.115,0.311 7.597,0.061 z "
         style="fill:black;stroke:none;" />
    </pattern>
  </defs>
  <sodipodi:namedview
     id="base"
     pagecolor="#ffffff"
     bordercolor="#666666"
     borderopacity="1.0"
     inkscape:pageopacity="0.0"
     inkscape:pageshadow="2"
     inkscape:zoom="0.35"
     inkscape:cx="400"
     inkscape:cy="560"
     inkscape:document-units="mm"
     inkscape:current-layer="layer1"
     inkscape:document-rotation="0"
     showgrid="false"
     fit-margin-top="0"
     fit-margin-left="0"
     fit-margin-right="0"
     fit-margin-bottom="0" />
  <metadata
     id="metadata5">
    <rdf:RDF>
      <cc:Work
         rdf:about="">
        <dc:format>image/svg+xml</dc:format>
        <dc:type
           rdf:resource="http://purl.org/dc/dcmitype/StillImage" />
        <dc:title />
      </cc:Work>
    </rdf:RDF>
  </metadata>
  <path
     style="display:inline;opacity:1;fill:url(#pattern2403-6-3);fill-opacity:1;stroke:none;stroke-width:3.00094485;stroke-miterlimit:8;stroke-dasharray:7.55905542, 7.55905542;stroke-dashoffset:0;stroke-opacity:1"
     d="M 218.39453 1.5 A 102.30937 102.30937 0 0 0 136.7793 42.275391 A 81.587717 81.587717 0 0 1 164.94727 103.81055 A 81.587717 81.587717 0 0 1 136.83203 165.36328 A 102.30937 102.30937 0 0 0 218.39453 206.11914 A 102.30937 102.30937 0 0 0 320.70508 103.81055 A 102.30937 102.30937 0 0 0 218.39453 1.5 z M 136.7793 42.275391 A 102.30937 102.30937 0 0 0 131.12305 50.591797 A 102.30937 102.30937 0 0 1 136.7793 42.275391 z M 130.76562 51.214844 A 102.30937 102.30937 0 0 0 126.32031 59.40625 A 102.30937 102.30937 0 0 1 130.76562 51.214844 z M 125.70312 60.787109 A 102.30937 102.30937 0 0 0 122.40625 68.642578 A 102.30937 102.30937 0 0 1 125.70312 60.787109 z M 121.66797 70.863281 A 102.30937 102.30937 0 0 0 119.41992 78.203125 A 102.30937 102.30937 0 0 1 121.66797 70.863281 z M 118.7168 81.333984 A 102.30937 102.30937 0 0 0 117.37891 88.025391 A 102.30937 102.30937 0 0 1 118.7168 81.333984 z M 200.08398 84.488281 L 236.70703 84.488281 L 236.70703 123.13086 L 200.08398 123.13086 L 200.08398 84.488281 z M 116.89258 92.035156 A 102.30937 102.30937 0 0 0 116.28125 98.300781 A 102.30937 102.30937 0 0 1 116.89258 92.035156 z M 116.08594 103.81055 A 102.30937 102.30937 0 0 0 136.80664 165.32812 A 102.30937 102.30937 0 0 1 116.08594 103.81055 z "
     transform="scale(0.26458333)"
     id="use3213-1-6" />
  <path
     style="display:inline;opacity:1;fill:url(#pattern2298-7-2);fill-opacity:1;stroke:none;stroke-width:3.54269123;stroke-miterlimit:8;stroke-dasharray:7.55905542, 7.55905542;stroke-dashoffset:0;stroke-opacity:1"
     d="M 83.359375,22.222656 A 81.587717,81.587717 0 0 0 1.7714844,103.81055 81.587717,81.587717 0 0 0 83.359375,185.39844 81.587717,81.587717 0 0 0 136.83203,165.36328 102.30937,102.30937 0 0 1 116.08594,103.81055 102.30937,102.30937 0 0 1 136.7793,42.275391 81.587717,81.587717 0 0 0 83.359375,22.222656 Z M 136.7793,42.275391 A 81.587716,81.587716 0 0 1 164.94727,103.81055 81.587717,81.587717 0 0 0 136.7793,42.275391 Z M 65.046875,84.488281 H 101.66992 V 123.13086 H 65.046875 Z m 99.724605,24.265629 a 81.587716,81.587716 0 0 1 -0.50781,4.77343 81.587717,81.587717 0 0 0 0.50781,-4.77343 z m -0.91992,8.16211 a 81.587716,81.587716 0 0 1 -1.06054,5.07617 81.587717,81.587717 0 0 0 1.06054,-5.07617 z m -1.69336,7.89843 a 81.587716,81.587716 0 0 1 -1.71289,5.41993 81.587717,81.587717 0 0 0 1.71289,-5.41993 z m -2.46875,7.69336 a 81.587716,81.587716 0 0 1 -2.45312,5.70508 81.587717,81.587717 0 0 0 2.45312,-5.70508 z m -3.21484,7.40821 a 81.587716,81.587716 0 0 1 -3.27149,5.90234 81.587717,81.587717 0 0 0 3.27149,-5.90234 z m -3.92969,7.05078 a 81.587716,81.587716 0 0 1 -4.1543,5.99218 81.587717,81.587717 0 0 0 4.1543,-5.99218 z m -4.61133,6.63281 a 81.587716,81.587716 0 0 1 -5.0039,5.86719 81.587717,81.587717 0 0 0 5.0039,-5.86719 z m -5.25781,6.15625 a 81.587716,81.587716 0 0 1 -5.83984,5.60352 81.587717,81.587717 0 0 0 5.83984,-5.60352 z"
     transform="scale(0.26458333)"
     id="use3215-5-9"
     inkscape:connector-curvature="0" />
  <path
     style="display:inline;opacity:1;fill:url(#pattern2612);fill-opacity:1;stroke:none;stroke-width:3.00094485;stroke-miterlimit:8;stroke-dasharray:7.55905534, 7.55905534;stroke-dashoffset:0;stroke-opacity:1"
     d="m 136.7793,42.275391 a 102.30937,102.30937 0 0 0 -20.69336,61.535159 102.30937,102.30937 0 0 0 20.74609,61.55273 81.587716,81.587716 0 0 0 28.11524,-61.55273 81.587716,81.587716 0 0 0 -28.16797,-61.535159 z"
     transform="scale(0.26458333)"
     id="use3213"
     inkscape:label="area_int"
     inkscape:connector-curvature="0" />
  <g
     inkscape:label="shade"
     inkscape:groupmode="layer"
     id="layer1"
     transform="translate(-33.740655,-89.400756)">
    <circle
       style="fill:#ff0000;fill-opacity:0.21568627;stroke-width:0.93733704;stroke-miterlimit:8"
       id="path10"
       cx="55.796074"
       cy="116.86711"
       r="21.58675"
       inkscape:label="shadeA" />
    <circle
       style="fill:#0000ff;fill-opacity:0.21568627;stroke-width:0.79399997;stroke-miterlimit:8"
       id="path12"
       cx="91.524269"
       cy="116.86711"
       r="27.069355"
       inkscape:label="shadeB" />
    <rect
       style="fill:none;fill-opacity:0.21568627;stroke:none;stroke-width:0.87331891;stroke-dasharray:0.87331882, 0.87331882;stroke-opacity:1"
       id="rect2449"
       width="9.6898222"
       height="10.22422"
       x="50.951164"
       y="111.755"
       inkscape:label="rectA" />
    <text
       xml:space="preserve"
       style="font-style:normal;font-variant:normal;font-weight:normal;font-stretch:normal;font-size:8.46666622px;line-height:1.25;font-family:Arial;-inkscape-font-specification:Arial;letter-spacing:0px;word-spacing:0px;fill:#000000;fill-opacity:1;stroke:none;stroke-width:0.26458332"
       x="55.808479"
       y="119.89742"
       id="text44"
       inkscape:label="labA"><tspan
         sodipodi:role="line"
         x="55.808479"
         y="119.89742"
         id="tspan42"><tspan
           x="55.808479"
           y="119.89742"
           style="text-align:center;text-anchor:middle"
           id="tspan40">X</tspan></tspan></text>
    <rect
       inkscape:label="rectB"
       y="111.755"
       x="86.679359"
       height="10.22422"
       width="9.6898222"
       id="use2477"
       style="opacity:1;fill:none;fill-opacity:0.21568627;stroke:none;stroke-width:0.87331891;stroke-dasharray:0.87331882, 0.87331882;stroke-opacity:1" />
    <text
       xml:space="preserve"
       style="font-style:normal;font-variant:normal;font-weight:normal;font-stretch:normal;font-size:8.46666622px;line-height:1.25;font-family:Arial;-inkscape-font-specification:Arial;letter-spacing:0px;word-spacing:0px;fill:#000000;fill-opacity:1;stroke:none;stroke-width:0.26458332"
       x="91.549072"
       y="119.89742"
       id="text50"
       inkscape:label="labB"><tspan
         sodipodi:role="line"
         x="91.549072"
         y="119.89742"
         id="tspan48"><tspan
           x="91.549072"
           y="119.89742"
           style="text-align:center;text-anchor:middle"
           id="tspan46">Y</tspan></tspan></text>
  </g>
</svg>
