<?xml version="1.0" encoding="UTF-8" standalone="no"?>
<!-- Created with Inkscape (http://www.inkscape.org/) -->

<svg
   xmlns:dc="http://purl.org/dc/elements/1.1/"
   xmlns:cc="http://creativecommons.org/ns#"
   xmlns:rdf="http://www.w3.org/1999/02/22-rdf-syntax-ns#"
   xmlns:svg="http://www.w3.org/2000/svg"
   xmlns="http://www.w3.org/2000/svg"
   xmlns:xlink="http://www.w3.org/1999/xlink"
   xmlns:sodipodi="http://sodipodi.sourceforge.net/DTD/sodipodi-0.dtd"
   xmlns:inkscape="http://www.inkscape.org/namespaces/inkscape"
   width="85.249969mm"
   height="54.932709mm"
   viewBox="0 0 85.24997 54.932709"
   version="1.1"
   id="svg8"
   sodipodi:docname="prelim_venn_activity_ab.svg"
   inkscape:version="0.92+devel (unknown)">
  <defs
     id="defs2">
    <pattern
       inkscape:collect="always"
       xlink:href="#Checkerboard"
       id="pattern2612"
       patternTransform="matrix(2.8902312,2.8902312,-2.8902312,2.8902312,0,0)" />
    <pattern
       inkscape:stockid="Checkerboard"
       id="Checkerboard"
       patternTransform="translate(0,0) scale(10,10)"
       height="2"
       width="2"
       patternUnits="userSpaceOnUse"
       inkscape:collect="always">
      <rect
         id="rect1964"
         height="1"
         width="1"
         y="0"
         x="0"
         style="fill:black;stroke:none" />
      <rect
         id="rect1966"
         height="1"
         width="1"
         y="1"
         x="1"
         style="fill:black;stroke:none" />
    </pattern>
    <pattern
       inkscape:collect="always"
       xlink:href="#Wavy-2"
       id="pattern2403-6"
       patternTransform="scale(0.70086523,1.9731625)" />
    <pattern
       inkscape:isstock="true"
       inkscape:stockid="Wavy"
       id="Wavy-2"
       height="5.1805778"
       width="30.066020"
       patternUnits="userSpaceOnUse"
       inkscape:collect="always">
      <path
         id="path2206-9"
         d="M 7.597,0.061 C 5.079,-0.187 2.656,0.302 -0.01,1.788 L -0.01,3.061 C 2.773,1.431 5.173,1.052 7.472,1.280 C 9.770,1.508 11.969,2.361 14.253,3.218 C 18.820,4.931 23.804,6.676 30.066,3.061 L 30.062,1.788 C 23.622,5.497 19.246,3.770 14.691,2.061 C 12.413,1.207 10.115,0.311 7.597,0.061 z "
         style="fill:black;stroke:none;" />
    </pattern>
    <pattern
       inkscape:collect="always"
       xlink:href="#Strips1_2-5-7"
       id="pattern2298-7-2"
       patternTransform="scale(3.391219,93.161242)" />
    <pattern
       inkscape:stockid="Stripes 1:2"
       id="Strips1_2-5-7"
       patternTransform="translate(0,0) scale(10,10)"
       height="1"
       width="3"
       patternUnits="userSpaceOnUse"
       inkscape:collect="always">
      <rect
         id="rect1590-3-0"
         height="2"
         width="1"
         y="-0.5"
         x="0"
         style="fill:black;stroke:none" />
    </pattern>
    <pattern
       inkscape:collect="always"
       xlink:href="#Wavy-2-6"
       id="pattern2403-6-3"
       patternTransform="matrix(0.70086523,0,0,1.9731625,-3.7795276e-6,-5.2913386e-7)" />
    <pattern
       inkscape:isstock="true"
       inkscape:stockid="Wavy"
       id="Wavy-2-6"
       height="5.1805778"
       width="30.066020"
       patternUnits="userSpaceOnUse"
       inkscape:collect="always">
      <path
         id="path2206-9-0"
         d="M 7.597,0.061 C 5.079,-0.187 2.656,0.302 -0.01,1.788 L -0.01,3.061 C 2.773,1.431 5.173,1.052 7.472,1.280 C 9.770,1.508 11.969,2.361 14.253,3.218 C 18.820,4.931 23.804,6.676 30.066,3.061 L 30.062,1.788 C 23.622,5.497 19.246,3.770 14.691,2.061 C 12.413,1.207 10.115,0.311 7.597,0.061 z "
         style="fill:black;stroke:none;" />
    </pattern>
    <pattern
       inkscape:collect="always"
       xlink:href="#Wavy-2-7"
       id="pattern2403-6-36"
       patternTransform="matrix(0.18543726,0,0,0.5220659,127.61927,-26.397764)" />
    <pattern
       inkscape:isstock="true"
       inkscape:stockid="Wavy"
       id="Wavy-2-7"
       height="5.1805778"
       width="30.066020"
       patternUnits="userSpaceOnUse"
       inkscape:collect="always">
      <path
         id="path2206-9-5"
         d="M 7.597,0.061 C 5.079,-0.187 2.656,0.302 -0.01,1.788 L -0.01,3.061 C 2.773,1.431 5.173,1.052 7.472,1.280 C 9.770,1.508 11.969,2.361 14.253,3.218 C 18.820,4.931 23.804,6.676 30.066,3.061 L 30.062,1.788 C 23.622,5.497 19.246,3.770 14.691,2.061 C 12.413,1.207 10.115,0.311 7.597,0.061 z "
         style="fill:black;stroke:none;" />
    </pattern>
  </defs>
  <sodipodi:namedview
     id="base"
     pagecolor="#ffffff"
     bordercolor="#666666"
     borderopacity="1.0"
     inkscape:pageopacity="0.0"
     inkscape:pageshadow="2"
     inkscape:zoom="0.35"
     inkscape:cx="400"
     inkscape:cy="560"
     inkscape:document-units="mm"
     inkscape:current-layer="svg8"
     inkscape:document-rotation="0"
     showgrid="false"
     fit-margin-top="0"
     fit-margin-left="0"
     fit-margin-right="0"
     fit-margin-bottom="0" />
  <metadata
     id="metadata5">
    <rdf:RDF>
      <cc:Work
         rdf:about="">
        <dc:format>image/svg+xml</dc:format>
        <dc:type
           rdf:resource="http://purl.org/dc/dcmitype/StillImage" />
        <dc:title></dc:title>
      </cc:Work>
    </rdf:RDF>
  </metadata>
  <path
     style="display:inline;opacity:1;fill:url(#pattern2403-6-3);fill-opacity:1;stroke:none;stroke-width:3.00094485;stroke-miterlimit:8;stroke-dasharray:7.55905542, 7.55905542;stroke-dashoffset:0;stroke-opacity:1"
     d="M 218.39453 1.5 A 102.30937 102.30937 0 0 0 116.08594 103.81055 A 102.30937 102.30937 0 0 0 218.39453 206.11914 A 102.30937 102.30937 0 0 0 320.70508 103.81055 A 102.30937 102.30937 0 0 0 218.39453 1.5 z M 200.08398 84.488281 L 236.70703 84.488281 L 236.70703 86.259766 L 254.20312 86.259766 L 254.20312 128.41992 L 180.54883 128.41992 L 180.54883 86.259766 L 200.08398 86.259766 L 200.08398 84.488281 z "
     transform="scale(0.26458333)"
     id="use3213-1-6"
     inkscape:label="areaB" />
  <path
     style="display:inline;opacity:1;fill:url(#pattern2298-7-2);fill-opacity:1;stroke:none;stroke-width:3.54269123;stroke-miterlimit:8;stroke-dasharray:7.55905542, 7.55905542;stroke-dashoffset:0;stroke-opacity:1"
     d="M 83.359375 22.222656 A 81.587717 81.587717 0 0 0 1.7714844 103.81055 A 81.587717 81.587717 0 0 0 83.359375 185.39844 A 81.587717 81.587717 0 0 0 164.94727 103.81055 A 81.587717 81.587717 0 0 0 83.359375 22.222656 z M 65.046875 84.488281 L 101.66992 84.488281 L 101.66992 123.13086 L 65.046875 123.13086 L 65.046875 84.488281 z "
     transform="scale(0.26458333)"
     id="use3215-5-9"
     inkscape:label="areaA" />
  <path
     style="display:none;opacity:1;fill:url(#pattern2403-6-36);fill-opacity:1;stroke:none;stroke-width:0.79399997;stroke-miterlimit:8;stroke-dasharray:2.00000006, 2.00000006;stroke-dashoffset:0;stroke-opacity:1"
     d="M 163.80879,-15.2124 A 27.069354,27.069354 0 0 0 158.33367,1.0687765 27.069354,27.069354 0 0 0 163.82274,17.354604 21.58675,21.58675 0 0 0 171.26157,1.0687765 21.58675,21.58675 0 0 0 163.80879,-15.2124 Z"
     id="use3213-1-3"
     inkscape:label="area_int"
     inkscape:connector-curvature="0" />
  <path
     style="display:none;opacity:1;fill:url(#pattern2403-6);fill-opacity:1;stroke:none;stroke-width:3.00094485;stroke-miterlimit:8;stroke-dasharray:7.55905534, 7.55905534;stroke-dashoffset:0;stroke-opacity:1"
     d="m 136.7793,42.275391 a 102.30937,102.30937 0 0 0 -20.69336,61.535159 102.30937,102.30937 0 0 0 20.74609,61.55273 81.587717,81.587717 0 0 0 28.11524,-61.55273 81.587717,81.587717 0 0 0 -28.16797,-61.535159 z"
     transform="scale(0.26458333)"
     id="use3213-1"
     inkscape:label="area_int"
     inkscape:connector-curvature="0" />
  <path
     style="display:inline;opacity:1;fill:url(#pattern2612);fill-opacity:1;stroke:none;stroke-width:3.00094485;stroke-miterlimit:8;stroke-dasharray:7.55905534, 7.55905534;stroke-dashoffset:0;stroke-opacity:1"
     d="m 136.7793,42.275391 a 102.30937,102.30937 0 0 0 -20.69336,61.535159 102.30937,102.30937 0 0 0 20.74609,61.55273 81.587716,81.587716 0 0 0 28.11524,-61.55273 81.587716,81.587716 0 0 0 -28.16797,-61.535159 z"
     transform="scale(0.26458333)"
     id="use3213"
     inkscape:label="area_int"
     inkscape:connector-curvature="0" />
  <g
     inkscape:label="shade"
     inkscape:groupmode="layer"
     id="layer1"
     transform="translate(-33.740655,-89.400756)">
    <circle
       style="fill:#ff0000;fill-opacity:0.21568627;stroke-width:0.93733704;stroke-miterlimit:8"
       id="path10"
       cx="55.796074"
       cy="116.86711"
       r="21.58675"
       inkscape:label="shadeA" />
    <circle
       style="fill:#0000ff;fill-opacity:0.21568627;stroke-width:0.79399997;stroke-miterlimit:8"
       id="path12"
       cx="91.524269"
       cy="116.86711"
       r="27.069355"
       inkscape:label="shadeB" />
    <text
       xml:space="preserve"
       style="font-style:normal;font-variant:normal;font-weight:normal;font-stretch:normal;font-size:8.46666622px;line-height:1.25;font-family:Arial;-inkscape-font-specification:Arial;letter-spacing:0px;word-spacing:0px;fill:#000000;fill-opacity:1;stroke:none;stroke-width:0.26458332"
       x="56.581558"
       y="119.90981"
       id="text52"
       inkscape:label="labA"><tspan
         sodipodi:role="line"
         x="56.581558"
         y="119.90981"
         id="tspan50"
         style="font-size:8.46666622px"><tspan
           x="56.581558"
           y="119.90981"
           style="font-size:8.46666622px;text-align:center;text-anchor:middle"
           id="tspan48">A1</tspan></tspan></text>
    <text
       xml:space="preserve"
       style="font-style:normal;font-variant:normal;font-weight:normal;font-stretch:normal;font-size:8.46666622px;line-height:1.25;font-family:Arial;-inkscape-font-specification:Arial;letter-spacing:0px;word-spacing:0px;fill:#000000;fill-opacity:1;stroke:none;stroke-width:0.26458332"
       x="82.163193"
       y="119.90981"
       id="text58"
       inkscape:label="labB"><tspan
         sodipodi:role="line"
         x="82.163193"
         y="119.90981"
         id="tspan56">B1<tspan
   style="font-size:64.99999762%;baseline-shift:sub"
   id="tspan60">pre</tspan></tspan></text>
    <rect
       style="display:inline;fill:none;fill-opacity:0.21568627;stroke:none;stroke-width:0.87331891;stroke-dasharray:0.87331883, 0.87331883;stroke-opacity:1"
       id="rect2449-3"
       width="9.6898222"
       height="10.22422"
       x="50.951164"
       y="111.755"
       inkscape:label="rectA" />
    <rect
       inkscape:label="rectB"
       y="112.22378"
       x="81.510727"
       height="11.154992"
       width="19.487593"
       id="use2477-6"
       style="opacity:1;fill:none;fill-opacity:0.21568627;stroke:none;stroke-width:1.29364038;stroke-dasharray:1.29364042, 1.29364042;stroke-opacity:1" />
  </g>
</svg>
