<?xml version="1.0" encoding="UTF-8" standalone="no"?>
<!-- Created with Inkscape (http://www.inkscape.org/) -->

<svg
   xmlns:dc="http://purl.org/dc/elements/1.1/"
   xmlns:cc="http://creativecommons.org/ns#"
   xmlns:rdf="http://www.w3.org/1999/02/22-rdf-syntax-ns#"
   xmlns:svg="http://www.w3.org/2000/svg"
   xmlns="http://www.w3.org/2000/svg"
   xmlns:xlink="http://www.w3.org/1999/xlink"
   xmlns:sodipodi="http://sodipodi.sourceforge.net/DTD/sodipodi-0.dtd"
   xmlns:inkscape="http://www.inkscape.org/namespaces/inkscape"
   width="85.249969mm"
   height="54.932709mm"
   viewBox="0 0 85.24997 54.932709"
   version="1.1"
   id="svg8"
   sodipodi:docname="prelim_venn_activity.svg"
   inkscape:version="0.92+devel (unknown)">
  <defs
     id="defs2">
    <pattern
       inkscape:collect="always"
       xlink:href="#Checkerboard"
       id="pattern2612"
       patternTransform="matrix(2.8902312,2.8902312,-2.8902312,2.8902312,0,0)" />
    <pattern
       inkscape:stockid="Checkerboard"
       id="Checkerboard"
       patternTransform="translate(0,0) scale(10,10)"
       height="2"
       width="2"
       patternUnits="userSpaceOnUse"
       inkscape:collect="always">
      <rect
         id="rect1964"
         height="1"
         width="1"
         y="0"
         x="0"
         style="fill:black;stroke:none" />
      <rect
         id="rect1966"
         height="1"
         width="1"
         y="1"
         x="1"
         style="fill:black;stroke:none" />
    </pattern>
    <pattern
       inkscape:collect="always"
       xlink:href="#Wavy-2"
       id="pattern2403-6"
       patternTransform="scale(0.70086523,1.9731625)" />
    <pattern
       inkscape:isstock="true"
       inkscape:stockid="Wavy"
       id="Wavy-2"
       height="5.1805778"
       width="30.066020"
       patternUnits="userSpaceOnUse"
       inkscape:collect="always">
      <path
         id="path2206-9"
         d="M 7.597,0.061 C 5.079,-0.187 2.656,0.302 -0.01,1.788 L -0.01,3.061 C 2.773,1.431 5.173,1.052 7.472,1.280 C 9.770,1.508 11.969,2.361 14.253,3.218 C 18.820,4.931 23.804,6.676 30.066,3.061 L 30.062,1.788 C 23.622,5.497 19.246,3.770 14.691,2.061 C 12.413,1.207 10.115,0.311 7.597,0.061 z "
         style="fill:black;stroke:none;" />
    </pattern>
    <pattern
       inkscape:collect="always"
       xlink:href="#Strips1_2-5-7"
       id="pattern2298-7-2"
       patternTransform="scale(0.89726002,24.648912)" />
    <pattern
       inkscape:stockid="Stripes 1:2"
       id="Strips1_2-5-7"
       patternTransform="translate(0,0) scale(10,10)"
       height="1"
       width="3"
       patternUnits="userSpaceOnUse"
       inkscape:collect="always">
      <rect
         id="rect1590-3-0"
         height="2"
         width="1"
         y="-0.5"
         x="0"
         style="fill:black;stroke:none" />
    </pattern>
    <pattern
       inkscape:collect="always"
       xlink:href="#Wavy-2-6"
       id="pattern2403-6-3"
       patternTransform="matrix(0.18543726,0,0,0.5220659,-1e-6,-1.4e-7)" />
    <pattern
       inkscape:isstock="true"
       inkscape:stockid="Wavy"
       id="Wavy-2-6"
       height="5.1805778"
       width="30.066020"
       patternUnits="userSpaceOnUse"
       inkscape:collect="always">
      <path
         id="path2206-9-0"
         d="M 7.597,0.061 C 5.079,-0.187 2.656,0.302 -0.01,1.788 L -0.01,3.061 C 2.773,1.431 5.173,1.052 7.472,1.280 C 9.770,1.508 11.969,2.361 14.253,3.218 C 18.820,4.931 23.804,6.676 30.066,3.061 L 30.062,1.788 C 23.622,5.497 19.246,3.770 14.691,2.061 C 12.413,1.207 10.115,0.311 7.597,0.061 z "
         style="fill:black;stroke:none;" />
    </pattern>
    <pattern
       inkscape:collect="always"
       xlink:href="#Wavy-2-7"
       id="pattern2403-6-36"
       patternTransform="matrix(0.18543726,0,0,0.5220659,127.61927,-26.397764)" />
    <pattern
       inkscape:isstock="true"
       inkscape:stockid="Wavy"
       id="Wavy-2-7"
       height="5.1805778"
       width="30.066020"
       patternUnits="userSpaceOnUse"
       inkscape:collect="always">
      <path
         id="path2206-9-5"
         d="M 7.597,0.061 C 5.079,-0.187 2.656,0.302 -0.01,1.788 L -0.01,3.061 C 2.773,1.431 5.173,1.052 7.472,1.280 C 9.770,1.508 11.969,2.361 14.253,3.218 C 18.820,4.931 23.804,6.676 30.066,3.061 L 30.062,1.788 C 23.622,5.497 19.246,3.770 14.691,2.061 C 12.413,1.207 10.115,0.311 7.597,0.061 z "
         style="fill:black;stroke:none;" />
    </pattern>
  </defs>
  <sodipodi:namedview
     id="base"
     pagecolor="#ffffff"
     bordercolor="#666666"
     borderopacity="1.0"
     inkscape:pageopacity="0.0"
     inkscape:pageshadow="2"
     inkscape:zoom="0.35"
     inkscape:cx="400"
     inkscape:cy="560"
     inkscape:document-units="mm"
     inkscape:current-layer="svg8"
     inkscape:document-rotation="0"
     showgrid="false"
     fit-margin-top="0"
     fit-margin-left="0"
     fit-margin-right="0"
     fit-margin-bottom="0" />
  <metadata
     id="metadata5">
    <rdf:RDF>
      <cc:Work
         rdf:about="">
        <dc:format>image/svg+xml</dc:format>
        <dc:type
           rdf:resource="http://purl.org/dc/dcmitype/StillImage" />
        <dc:title />
      </cc:Work>
    </rdf:RDF>
  </metadata>
  <path
     inkscape:connector-curvature="0"
     style="display:none;opacity:1;fill:url(#pattern2403-6-3);fill-opacity:1;stroke:none;stroke-width:0.79399997;stroke-miterlimit:8;stroke-dasharray:2.00000008, 2.00000008;stroke-dashoffset:0;stroke-opacity:1"
     d="M 57.783552,0.39687486 A 27.069354,27.069354 0 0 0 30.714404,27.466541 27.069354,27.069354 0 0 0 57.783552,54.535689 27.069354,27.069354 0 0 0 84.853218,27.466541 27.069354,27.069354 0 0 0 57.783552,0.39687486 Z M 52.938886,22.354192 h 9.689848 v 10.224181 h -9.689848 z"
     id="use3213-1-6"
     inkscape:label="areaB" />
  <path
     inkscape:connector-curvature="0"
     style="display:none;opacity:1;fill:url(#pattern2298-7-2);fill-opacity:1;stroke:none;stroke-width:0.93733704;stroke-miterlimit:8;stroke-dasharray:2.00000008, 2.00000008;stroke-dashoffset:0;stroke-opacity:1"
     d="M 22.055499,5.8797443 A 21.58675,21.58675 0 0 0 0.46870453,27.466541 21.58675,21.58675 0 0 0 22.055499,49.053336 21.58675,21.58675 0 0 0 43.642298,27.466541 21.58675,21.58675 0 0 0 22.055499,5.8797443 Z m -4.84518,16.4744477 h 9.689845 v 10.22418 h -9.689845 z"
     id="use3215-5-9"
     inkscape:label="areaA" />
  <path
     style="display:none;opacity:1;fill:url(#pattern2403-6-36);fill-opacity:1;stroke:none;stroke-width:0.79399997;stroke-miterlimit:8;stroke-dasharray:2.00000006, 2.00000006;stroke-dashoffset:0;stroke-opacity:1"
     d="M 163.80879,-15.2124 A 27.069354,27.069354 0 0 0 158.33367,1.0687765 27.069354,27.069354 0 0 0 163.82274,17.354604 21.58675,21.58675 0 0 0 171.26157,1.0687765 21.58675,21.58675 0 0 0 163.80879,-15.2124 Z"
     id="use3213-1-3"
     inkscape:label="area_int"
     inkscape:connector-curvature="0" />
  <path
     style="display:none;opacity:1;fill:url(#pattern2403-6);fill-opacity:1;stroke:none;stroke-width:3.00094485;stroke-miterlimit:8;stroke-dasharray:7.55905534, 7.55905534;stroke-dashoffset:0;stroke-opacity:1"
     d="m 136.7793,42.275391 a 102.30937,102.30937 0 0 0 -20.69336,61.535159 102.30937,102.30937 0 0 0 20.74609,61.55273 81.587717,81.587717 0 0 0 28.11524,-61.55273 81.587717,81.587717 0 0 0 -28.16797,-61.535159 z"
     transform="scale(0.26458333)"
     id="use3213-1"
     inkscape:label="area_int"
     inkscape:connector-curvature="0" />
  <path
     style="display:inline;opacity:1;fill:url(#pattern2612);fill-opacity:1;stroke:none;stroke-width:3.00094485;stroke-miterlimit:8;stroke-dasharray:7.55905534, 7.55905534;stroke-dashoffset:0;stroke-opacity:1"
     d="m 136.7793,42.275391 a 102.30937,102.30937 0 0 0 -20.69336,61.535159 102.30937,102.30937 0 0 0 20.74609,61.55273 81.587716,81.587716 0 0 0 28.11524,-61.55273 81.587716,81.587716 0 0 0 -28.16797,-61.535159 z"
     transform="scale(0.26458333)"
     id="use3213"
     inkscape:label="area_int"
     inkscape:connector-curvature="0" />
  <g
     inkscape:label="shade"
     inkscape:groupmode="layer"
     id="layer1"
     transform="translate(-33.740655,-89.400756)">
    <circle
       style="fill:#ff0000;fill-opacity:0.21568627;stroke-width:0.93733704;stroke-miterlimit:8"
       id="path10"
       cx="55.796074"
       cy="116.86711"
       r="21.58675"
       inkscape:label="shadeA" />
    <circle
       style="fill:#0000ff;fill-opacity:0.21568627;stroke-width:0.79399997;stroke-miterlimit:8"
       id="path12"
       cx="91.524269"
       cy="116.86711"
       r="27.069355"
       inkscape:label="shadeB" />
    <rect
       style="fill:none;fill-opacity:0.21568627;stroke:none;stroke-width:0.87331891;stroke-dasharray:0.87331882, 0.87331882;stroke-opacity:1"
       id="rect2449"
       width="9.6898222"
       height="10.22422"
       x="50.951164"
       y="111.755"
       inkscape:label="rectA" />
    <flowRoot
       xml:space="preserve"
       style="font-style:normal;font-variant:normal;font-weight:normal;font-stretch:normal;font-size:8.46666622px;line-height:1.25;font-family:Arial;-inkscape-font-specification:Arial;letter-spacing:0px;word-spacing:0px;fill:#000000;fill-opacity:1;stroke:none;stroke-width:0.26458332"
       id="flowRoot2451"
       inkscape:label="labA"><flowRegion
         id="flowRegion2453"><use
           x="0"
           y="0"
           xlink:href="#rect2449"
           id="use2455" /></flowRegion><flowPara
         id="flowPara2457"
         style="text-align:center;text-anchor:middle">X</flowPara></flowRoot>    <rect
       inkscape:label="rectB"
       y="111.755"
       x="86.679359"
       height="10.22422"
       width="9.6898222"
       id="use2477"
       style="opacity:1;fill:none;fill-opacity:0.21568627;stroke:none;stroke-width:0.87331891;stroke-dasharray:0.87331882, 0.87331882;stroke-opacity:1" />
    <flowRoot
       xml:space="preserve"
       style="font-style:normal;font-variant:normal;font-weight:normal;font-stretch:normal;font-size:8.46666622px;line-height:1.25;font-family:Arial;-inkscape-font-specification:Arial;letter-spacing:0px;word-spacing:0px;fill:#000000;fill-opacity:1;stroke:none;stroke-width:0.26458332"
       id="flowRoot2481"
       inkscape:label="labB"><flowRegion
         id="flowRegion2483"><use
           x="0"
           y="0"
           xlink:href="#use2477"
           id="use2485" /></flowRegion><flowPara
         id="flowPara2487"
         style="text-align:center;text-anchor:middle">Y</flowPara></flowRoot>  </g>
</svg>
